#!OML:ASF G:\JayActor3\Patient Classification 1\Patient 1\Session 6\male.ASF
:FULLY-SPECIFIED
:DEGREES
1675
root 5.8045 16.2629 -24.5195 513.781 -79.4829 -514.733
lowerback 4.65419 0.801189 4.72567
upperback 1.06067 1.2768 0.641027
thorax -1.42747 0.611147 -2.06297
lowerneck -3.41142 -0.203124 0.761381
upperneck 17.3454 -0.982991 1.50197
head 5.80011 -0.482591 0.27076
rclavicle 2.44132e-015 -9.34288e-015
rhumerus -23.8859 22.8939 -66.1891
rradius 98.7371
rwrist 10.7192
rhand -54.6689 0.822404
rfingers 7.12502
rthumb -27.0635 -27.2581
lclavicle 2.44132e-015 -9.34288e-015
lhumerus -18.5115 -15.8107 75.4599
lradius 102.153
lwrist 14.7136
lhand -49.0287 -19.3
lfingers 7.12502
lthumb -21.6566 9.50885
rfemur -11.8663 -12.2253 31.432
rtibia 33.6051
rfoot -27.2636 -12.7455
rtoes 13.038
lfemur -14.5628 7.86407 -11.9942
ltibia 38.7637
lfoot -20.3432 5.9201
ltoes -10.909
1676
root 5.80225 16.262 -24.5159 513.737 -79.5031 -514.745
lowerback 4.63716 0.755041 4.73483
upperback 1.04311 1.21588 0.679236
thorax -1.44097 0.580082 -2.02532
lowerneck -3.66046 -0.352727 0.710497
upperneck 18.0315 -1.16098 1.1251
head 6.05774 -0.602472 0.146562
rclavicle -1.55238e-014 -6.95746e-015
rhumerus -23.7672 23.1404 -65.9896
rradius 98.1454
rwrist 10.7534
rhand -54.6401 1.00552
rfingers 7.12502
rthumb -27.0358 -27.0793
lclavicle -1.55238e-014 -6.95746e-015
lhumerus -18.5646 -15.7004 75.3538
lradius 101.622
lwrist 14.7037
lhand -49.0506 -19.3415
lfingers 7.12502
lthumb -21.6776 9.46487
rfemur -11.7917 -12.2634 31.3793
rtibia 33.6106
rfoot -27.2947 -12.6624
rtoes 13.1145
lfemur -14.4439 8.13908 -12.0547
ltibia 38.9227
lfoot -20.203 6.33409
ltoes -10.8061
1677
root 5.79958 16.261 -24.5117 513.637 -79.5228 -514.7
lowerback 4.61598 0.707728 4.75643
upperback 1.02989 1.15351 0.720084
thorax -1.4475 0.54842 -1.99171
lowerneck -3.88403 -0.496386 0.6541
upperneck 18.6596 -1.32431 0.750722
head 6.2935 -0.717539 0.0231216
rclavicle 2.74447e-014 -3.97569e-016
rhumerus -23.6471 23.3864 -65.7759
rradius 97.5678
rwrist 10.7757
rhand -54.6205 1.19909
rfingers 7.12502
rthumb -27.0171 -26.8887
lclavicle 2.74447e-014 -3.97569e-016
lhumerus -18.5999 -15.5946 75.2437
lradius 101.091
lwrist 14.5898
lhand -49.1032 -19.3441
lfingers 7.12502
lthumb -21.7281 9.45648
rfemur -11.714 -12.2921 31.3363
rtibia 33.6124
rfoot -27.3305 -12.5919
rtoes 13.1977
lfemur -14.3196 8.39095 -12.1017
ltibia 39.061
lfoot -20.085 6.68162
ltoes -10.7447
1678
root 5.79636 16.2599 -24.5066 513.449 -79.5483 -514.566
lowerback 4.58635 0.656081 4.79805
upperback 1.0222 1.08548 0.76265
thorax -1.44356 0.514124 -1.96704
lowerneck -4.08523 -0.632281 0.601326
upperneck 19.2335 -1.47097 0.373351
head 6.50888 -0.8263 -0.102393
rclavicle -2.37299e-015 -1.55052e-014
rhumerus -23.5268 23.6286 -65.5519
rradius 97.0075
rwrist 10.7863
rhand -54.5954 1.36373
rfingers 7.12502
rthumb -26.9931 -26.7277
lclavicle -2.37299e-015 -1.55052e-014
lhumerus -18.6147 -15.4883 75.1281
lradius 100.559
lwrist 14.3747
lhand -49.1768 -19.3067
lfingers 7.12502
lthumb -21.7988 9.48569
rfemur -11.6354 -12.3273 31.3036
rtibia 33.6102
rfoot -27.3628 -12.5323
rtoes 13.2621
lfemur -14.193 8.61504 -12.1355
ltibia 39.1778
lfoot -19.9876 6.96598
ltoes -10.6911
1679
root 5.79253 16.2588 -24.5007 513.144 -79.5884 -514.31
lowerback 4.54384 0.595094 4.85731
upperback 1.02051 1.0047 0.80922
thorax -1.42687 0.473715 -1.94722
lowerneck -4.26673 -0.758459 0.555546
upperneck 19.7577 -1.59801 -0.0133548
head 6.70542 -0.927336 -0.232111
rclavicle -6.79595e-015 1.2921e-015
rhumerus -23.4033 23.8683 -65.317
rradius 96.4665
rwrist 10.7863
rhand -54.584 1.54944
rfingers 7.12502
rthumb -26.9822 -26.5437
lclavicle -6.79595e-015 1.2921e-015
lhumerus -18.6114 -15.3676 75.0096
lradius 100.04
lwrist 14.1203
lhand -49.2439 -19.2787
lfingers 7.12502
lthumb -21.8632 9.50617
rfemur -11.5582 -12.3666 31.2844
rtibia 33.6044
rfoot -27.4002 -12.4926
rtoes 13.3231
lfemur -14.0681 8.8034 -12.1553
ltibia 39.2713
lfoot -19.8894 7.19818
ltoes -10.6809
1680
root 5.78823 16.2577 -24.4939 512.822 -79.6378 -514.03
lowerback 4.48671 0.528876 4.9196
upperback 1.02308 0.9159 0.855366
thorax -1.3981 0.429624 -1.92895
lowerneck -4.42938 -0.874885 0.521955
upperneck 20.2366 -1.70584 -0.412926
head 6.88449 -1.02061 -0.367842
rclavicle 1.37099e-014 -7.05686e-015
rhumerus -23.2688 24.1047 -65.0718
rradius 95.9372
rwrist 10.7825
rhand -54.5806 1.74272
rfingers 7.12502
rthumb -26.979 -26.3509
lclavicle 1.37099e-014 -7.05686e-015
lhumerus -18.5943 -15.2346 74.8865
lradius 99.5358
lwrist 13.8614
lhand -49.3029 -19.2486
lfingers 7.12502
lthumb -21.9199 9.52966
rfemur -11.4889 -12.413 31.2626
rtibia 33.5992
rfoot -27.4368 -12.4536
rtoes 13.3676
lfemur -13.943 8.96582 -12.1782
ltibia 39.3362
lfoot -19.7856 7.38014
ltoes -10.6724
1681
root 5.78347 16.2566 -24.4865 512.506 -79.6855 -513.75
lowerback 4.41883 0.46081 4.98176
upperback 1.02576 0.82384 0.902211
thorax -1.36349 0.384051 -1.90971
lowerneck -4.57248 -0.980195 0.498103
upperneck 20.6755 -1.79379 -0.820888
head 7.04749 -1.10554 -0.507496
rclavicle -4.90439e-015 -6.95746e-015
rhumerus -23.1255 24.3392 -64.8191
rradius 95.4175
rwrist 10.7766
rhand -54.5817 1.91034
rfingers 7.12502
rthumb -26.98 -26.1832
lclavicle -4.90439e-015 -6.95746e-015
lhumerus -18.5672 -15.0847 74.7632
lradius 99.0482
lwrist 13.6232
lhand -49.3455 -19.2282
lfingers 7.12502
lthumb -21.9608 9.54524
rfemur -11.4294 -12.4592 31.2409
rtibia 33.5974
rfoot -27.4702 -12.4182
rtoes 13.3982
lfemur -13.8147 9.11861 -12.202
ltibia 39.368
lfoot -19.6632 7.52716
ltoes -10.7258
1682
root 5.77828 16.2554 -24.479 512.254 -79.7181 -513.523
lowerback 4.34586 0.397632 5.0368
upperback 1.02286 0.737805 0.948546
thorax -1.33149 0.341407 -1.88746
lowerneck -4.69492 -1.07883 0.485238
upperneck 21.0827 -1.86865 -1.23903
head 7.19682 -1.18545 -0.652232
rclavicle 1.78533e-014 4.96962e-016
rhumerus -22.9852 24.5688 -64.5666
rradius 94.9076
rwrist 10.7701
rhand -54.595 2.07927
rfingers 7.12502
rthumb -26.9927 -26.0122
lclavicle 1.78533e-014 4.96962e-016
lhumerus -18.5387 -14.928 74.6379
lradius 98.5788
lwrist 13.4285
lhand -49.3748 -19.2074
lfingers 7.12502
lthumb -21.9889 9.56276
rfemur -11.3823 -12.4845 31.2202
rtibia 33.6015
rfoot -27.5033 -12.3888
rtoes 13.4227
lfemur -13.6813 9.27794 -12.2269
ltibia 39.3617
lfoot -19.5329 7.62992
ltoes -10.8182
1683
root 5.77273 16.2542 -24.4716 512.088 -79.7237 -513.376
lowerback 4.27301 0.343881 5.08351
upperback 1.01196 0.664252 0.995045
thorax -1.30704 0.304762 -1.86124
lowerneck -4.79496 -1.17118 0.476957
upperneck 21.4607 -1.93226 -1.65925
head 7.3329 -1.26093 -0.798327
rclavicle 6.768e-015 -2.20651e-014
rhumerus -22.8534 24.7908 -64.3198
rradius 94.4093
rwrist 10.7639
rhand -54.6207 2.24666
rfingers 7.12502
rthumb -27.0173 -25.841
lclavicle 6.768e-015 -2.20651e-014
lhumerus -18.5159 -14.7651 74.5133
lradius 98.1311
lwrist 13.2924
lhand -49.3897 -19.1919
lfingers 7.12502
lthumb -22.0032 9.57654
rfemur -11.3459 -12.477 31.2036
rtibia 33.6117
rfoot -27.5359 -12.3702
rtoes 13.4412
lfemur -13.5408 9.45464 -12.2487
ltibia 39.3132
lfoot -19.4162 7.67387
ltoes -10.9014
1684
root 5.76681 16.2531 -24.4646 512.021 -79.698 -513.32
lowerback 4.19799 0.300393 5.11674
upperback 0.998172 0.603702 1.04439
thorax -1.28364 0.274576 -1.82531
lowerneck -4.8866 -1.25706 0.469047
upperneck 21.8173 -1.98391 -2.08244
head 7.46084 -1.33193 -0.945401
rclavicle -1.3977e-017 1.19271e-015
rhumerus -22.7247 25.0044 -64.0781
rradius 93.9216
rwrist 10.7589
rhand -54.6361 2.37726
rfingers 7.12502
rthumb -27.032 -25.7082
lclavicle -1.3977e-017 1.19271e-015
lhumerus -18.4963 -14.5918 74.3895
lradius 97.7046
lwrist 13.2094
lhand -49.4012 -19.1966
lfingers 7.12502
lthumb -22.0143 9.57052
rfemur -11.318 -12.4218 31.1939
rtibia 33.6277
rfoot -27.5716 -12.3708
rtoes 13.448
lfemur -13.3947 9.65968 -12.2645
ltibia 39.2198
lfoot -19.3185 7.65299
ltoes -10.9487
1685
root 5.76046 16.2525 -24.4577 512.112 -79.6587 -513.421
lowerback 4.12547 0.264621 5.12391
upperback 0.980526 0.55267 1.08937
thorax -1.26513 0.24911 -1.77996
lowerneck -4.97072 -1.33906 0.455276
upperneck 22.1597 -2.02866 -2.50016
head 7.58325 -1.40069 -1.09006
rclavicle 3.65966e-015 5.11871e-015
rhumerus -22.6042 25.2051 -63.8461
rradius 93.4461
rwrist 10.7536
rhand -54.6689 2.527
rfingers 7.12502
rthumb -27.0634 -25.5536
lclavicle 3.65966e-015 5.11871e-015
lhumerus -18.4803 -14.4059 74.2716
lradius 97.2965
lwrist 13.1665
lhand -49.4118 -19.2139
lfingers 7.12502
lthumb -22.0245 9.552
rfemur -11.2945 -12.3363 31.1664
rtibia 33.6499
rfoot -27.6091 -12.3836
rtoes 13.4538
lfemur -13.2431 9.87932 -12.2962
ltibia 39.0797
lfoot -19.2436 7.56282
ltoes -10.8434
1686
root 5.75356 16.2521 -24.4507 512.331 -79.6118 -513.648
lowerback 4.05714 0.23365 5.11135
upperback 0.958283 0.507752 1.12773
thorax -1.25337 0.226607 -1.73083
lowerneck -5.04577 -1.41762 0.436687
upperneck 22.4912 -2.06836 -2.9087
head 7.70098 -1.46771 -1.23135
rclavicle 5.30274e-015 1.66606e-014
rhumerus -22.4944 25.3932 -63.6305
rradius 92.9777
rwrist 10.7527
rhand -54.7117 2.6744
rfingers 7.12502
rthumb -27.1044 -25.3998
lclavicle 5.30274e-015 1.66606e-014
lhumerus -18.4691 -14.2096 74.1573
lradius 96.9033
lwrist 13.1372
lhand -49.4222 -19.252
lfingers 7.12502
lthumb -22.0344 9.51281
rfemur -11.275 -12.2269 31.1217
rtibia 33.6805
rfoot -27.6527 -12.4044
rtoes 13.4624
lfemur -13.0874 10.1056 -12.3434
ltibia 38.8932
lfoot -19.1737 7.42338
ltoes -10.5333
1687
root 5.74603 16.2519 -24.4435 512.618 -79.5711 -513.947
lowerback 3.98741 0.200112 5.08318
upperback 0.937907 0.45864 1.16081
thorax -1.23918 0.202184 -1.67825
lowerneck -5.12224 -1.49144 0.418704
upperneck 22.8159 -2.10026 -3.31583
head 7.81719 -1.53189 -1.37269
rclavicle 1.56582e-015 9.2e-015
rhumerus -22.381 25.5687 -63.4272
rradius 92.5125
rwrist 10.7646
rhand -54.7722 2.81209
rfingers 7.12502
rthumb -27.1623 -25.2531
lclavicle 1.56582e-015 9.2e-015
lhumerus -18.4579 -13.99 74.0484
lradius 96.5259
lwrist 13.0898
lhand -49.4239 -19.2748
lfingers 7.12502
lthumb -22.0361 9.48981
rfemur -11.2558 -12.1025 31.061
rtibia 33.7209
rfoot -27.7117 -12.433
rtoes 13.4853
lfemur -12.9282 10.332 -12.405
ltibia 38.6654
lfoot -19.086 7.25778
ltoes -10.0268
1688
root 5.73787 16.2518 -24.4358 513.022 -79.5384 -514.365
lowerback 3.9115 0.163654 5.03264
upperback 0.919645 0.404367 1.1853
thorax -1.21969 0.175484 -1.62182
lowerneck -5.19148 -1.5614 0.40643
upperneck 23.1287 -2.12563 -3.72563
head 7.92843 -1.59368 -1.51614
rclavicle -1.52653e-014 -2.02512e-015
rhumerus -22.2619 25.7316 -63.239
rradius 92.0478
rwrist 10.7977
rhand -54.8665 2.98905
rfingers 7.12502
rthumb -27.2524 -25.062
lclavicle -1.52653e-014 -2.02512e-015
lhumerus -18.448 -13.7504 73.9392
lradius 96.1612
lwrist 13.006
lhand -49.4232 -19.2884
lfingers 7.12502
lthumb -22.0354 9.4762
rfemur -11.2382 -11.9718 30.9726
rtibia 33.7704
rfoot -27.7786 -12.4595
rtoes 13.5142
lfemur -12.7673 10.5571 -12.4943
ltibia 38.4061
lfoot -18.9742 7.09152
ltoes -9.36672
1689
root 5.72915 16.2517 -24.4277 513.474 -79.5035 -514.833
lowerback 3.83179 0.125922 4.97589
upperback 0.90242 0.347955 1.20453
thorax -1.19701 0.147855 -1.5673
lowerneck -5.25808 -1.62622 0.402425
upperneck 23.4333 -2.14321 -4.13738
head 8.03682 -1.6522 -1.6619
rclavicle 1.31788e-014 -1.4884e-014
rhumerus -22.1384 25.8792 -63.068
rradius 91.582
rwrist 10.8591
rhand -54.9854 3.15883
rfingers 7.12502
rthumb -27.3662 -24.8743
lclavicle 1.31788e-014 -1.4884e-014
lhumerus -18.4378 -13.4931 73.8322
lradius 95.8089
lwrist 12.8795
lhand -49.424 -19.3043
lfingers 7.12502
lthumb -22.0361 9.46029
rfemur -11.2214 -11.8306 30.875
rtibia 33.8268
rfoot -27.8532 -12.4883
rtoes 13.542
lfemur -12.605 10.795 -12.5925
ltibia 38.1281
lfoot -18.8382 6.94272
ltoes -8.66236
